<?xml version="1.0" encoding="UTF-8" standalone="no"?>
<svg
   height="496"
   width="496"
   version="1.1"
   id="svg1"
   sodipodi:docname="distro-nixos-symbolic.svg"
   inkscape:version="1.3.2 (091e20ef0f, 2023-11-25)"
   xmlns:inkscape="http://www.inkscape.org/namespaces/inkscape"
   xmlns:sodipodi="http://sodipodi.sourceforge.net/DTD/sodipodi-0.dtd"
   xmlns="http://www.w3.org/2000/svg"
   xmlns:svg="http://www.w3.org/2000/svg">
  <defs
     id="defs1" />
  <sodipodi:namedview
     id="namedview1"
     pagecolor="#ffffff"
     bordercolor="#000000"
     borderopacity="0.25"
     inkscape:showpageshadow="2"
     inkscape:pageopacity="0.0"
     inkscape:pagecheckerboard="0"
     inkscape:deskcolor="#d1d1d1"
     inkscape:zoom="1.1643145"
     inkscape:cx="209.99481"
     inkscape:cy="256.37403"
     inkscape:window-width="2560"
     inkscape:window-height="1361"
     inkscape:window-x="0"
     inkscape:window-y="42"
     inkscape:window-maximized="1"
     inkscape:current-layer="svg1" />
  <path
     id="path1"
     style="display:inline;overflow:visible;fill:#474747;fill-rule:evenodd;stroke-width:3.2;stroke-linejoin:round;enable-background:accumulate"
     d="m 409.27344,128.88867 -112.0918,194.125 51.68945,-0.13476 30.69141,-52.91016 85.39648,0.26953 13.05664,-22.67187 -12.78515,-22.16797 -59.9961,-0.15821 L 435.44336,173.25 Z M 158.8125,48.585937 l -26.16211,0.02734 -12.80469,22.158203 29.86133,52.03516 -60.130858,-0.16601 -25.332031,44.8457 224.162109,0.01 -25.96094,-44.69531 -61.16797,-0.125 z m -0.44531,204.337893 -25.72852,44.83203 30.47656,53.0332 -42.93164,73.82031 13.10547,22.64454 25.5918,0.01 30.13281,-51.87695 29.92188,52.15625 51.5039,-0.48242 z m 118.95312,-204.466799 -51.5039,0.482422 112.07226,194.136717 25.72656,-44.83203 -30.47461,-53.0332 42.93165,-73.820315 -13.10743,-22.644531 -25.58984,-0.0098 -30.13477,51.876956 z m -69.90234,279.679689 25.96094,44.69726 61.16601,0.125 42.46485,74.08985 26.16406,-0.0293 12.80469,-22.15625 -29.86133,-52.03516 60.1289,0.16602 25.33399,-44.8457 z m -8.59961,-155.17969 -51.68945,0.13477 -30.69141,52.91015 -85.396484,-0.26953 -13.056641,22.67188 12.785156,22.16797 59.996094,0.15625 -30.208984,51.99218 26.169921,44.36133 z" />
</svg>
